<mxfile host="app.diagrams.net" agent="Mozilla/5.0 (Windows NT 10.0; Win64; x64) AppleWebKit/537.36 (KHTML, like Gecko) Chrome/127.0.0.0 Safari/537.36" version="24.7.7">
  <diagram name="Page-1" id="822b0af5-4adb-64df-f703-e8dfc1f81529">
    <mxGraphModel dx="1764" dy="933" grid="1" gridSize="10" guides="1" tooltips="1" connect="1" arrows="1" fold="1" page="1" pageScale="1" pageWidth="1100" pageHeight="850" background="none" math="0" shadow="0">
      <root>
        <mxCell id="0" />
        <mxCell id="1" parent="0" />
        <mxCell id="66AOZsbWc32Ulu1TGBga-9" value="&lt;font style=&quot;font-size: 24px;&quot;&gt;&lt;b&gt;Data Ingestion&lt;/b&gt;&lt;/font&gt;" style="whiteSpace=wrap;html=1;" vertex="1" parent="1">
          <mxGeometry x="370" y="120" width="150" height="60" as="geometry" />
        </mxCell>
        <mxCell id="66AOZsbWc32Ulu1TGBga-2" value="&lt;h1 style=&quot;margin-top: 0px;&quot;&gt;&lt;font style=&quot;font-size: 36px;&quot;&gt;Architecture Diagram&lt;br&gt;&lt;/font&gt;&lt;/h1&gt;&lt;p&gt;&lt;font size=&quot;3&quot;&gt;&lt;b&gt;&amp;nbsp;&lt;/b&gt;&lt;/font&gt;&lt;/p&gt;" style="text;html=1;whiteSpace=wrap;overflow=hidden;rounded=0;" vertex="1" parent="1">
          <mxGeometry x="680" y="10" width="400" height="70" as="geometry" />
        </mxCell>
        <mxCell id="66AOZsbWc32Ulu1TGBga-8" value="&lt;font style=&quot;font-size: 24px;&quot;&gt;&lt;b&gt;Kaggle&lt;/b&gt;&lt;/font&gt;" style="shape=cylinder3;whiteSpace=wrap;html=1;boundedLbl=1;backgroundOutline=1;size=15;" vertex="1" parent="1">
          <mxGeometry x="180" y="100" width="110" height="100" as="geometry" />
        </mxCell>
        <mxCell id="66AOZsbWc32Ulu1TGBga-11" value="" style="edgeStyle=orthogonalEdgeStyle;rounded=0;orthogonalLoop=1;jettySize=auto;html=1;" edge="1" parent="1" source="66AOZsbWc32Ulu1TGBga-9" target="66AOZsbWc32Ulu1TGBga-8">
          <mxGeometry relative="1" as="geometry" />
        </mxCell>
        <mxCell id="66AOZsbWc32Ulu1TGBga-16" value="" style="edgeStyle=orthogonalEdgeStyle;rounded=0;orthogonalLoop=1;jettySize=auto;html=1;" edge="1" parent="1" source="66AOZsbWc32Ulu1TGBga-13" target="66AOZsbWc32Ulu1TGBga-9">
          <mxGeometry relative="1" as="geometry" />
        </mxCell>
        <mxCell id="66AOZsbWc32Ulu1TGBga-13" value="&lt;font style=&quot;font-size: 24px;&quot;&gt;&lt;b&gt;Data Validation&lt;/b&gt;&lt;/font&gt;" style="whiteSpace=wrap;html=1;" vertex="1" parent="1">
          <mxGeometry x="610" y="120" width="135" height="60" as="geometry" />
        </mxCell>
        <mxCell id="66AOZsbWc32Ulu1TGBga-18" value="" style="edgeStyle=orthogonalEdgeStyle;rounded=0;orthogonalLoop=1;jettySize=auto;html=1;" edge="1" parent="1" source="66AOZsbWc32Ulu1TGBga-17" target="66AOZsbWc32Ulu1TGBga-13">
          <mxGeometry relative="1" as="geometry" />
        </mxCell>
        <mxCell id="66AOZsbWc32Ulu1TGBga-17" value="&lt;font style=&quot;font-size: 24px;&quot;&gt;&lt;b&gt;Data transformation&lt;/b&gt;&lt;/font&gt;" style="rounded=0;whiteSpace=wrap;html=1;" vertex="1" parent="1">
          <mxGeometry x="820" y="119" width="180" height="60" as="geometry" />
        </mxCell>
        <mxCell id="66AOZsbWc32Ulu1TGBga-20" value="" style="edgeStyle=orthogonalEdgeStyle;rounded=0;orthogonalLoop=1;jettySize=auto;html=1;" edge="1" parent="1" source="66AOZsbWc32Ulu1TGBga-19" target="66AOZsbWc32Ulu1TGBga-17">
          <mxGeometry relative="1" as="geometry" />
        </mxCell>
        <mxCell id="66AOZsbWc32Ulu1TGBga-19" value="&lt;font style=&quot;font-size: 24px;&quot;&gt;&lt;b&gt;Model Trainer&lt;/b&gt;&lt;/font&gt;" style="rounded=0;whiteSpace=wrap;html=1;" vertex="1" parent="1">
          <mxGeometry x="850" y="250" width="120" height="60" as="geometry" />
        </mxCell>
        <mxCell id="66AOZsbWc32Ulu1TGBga-22" value="" style="edgeStyle=orthogonalEdgeStyle;rounded=0;orthogonalLoop=1;jettySize=auto;html=1;" edge="1" parent="1" source="66AOZsbWc32Ulu1TGBga-21" target="66AOZsbWc32Ulu1TGBga-19">
          <mxGeometry relative="1" as="geometry" />
        </mxCell>
        <mxCell id="66AOZsbWc32Ulu1TGBga-21" value="&lt;font style=&quot;font-size: 24px;&quot;&gt;&lt;b&gt;Model Evaluation&lt;/b&gt;&lt;/font&gt;" style="rounded=0;whiteSpace=wrap;html=1;" vertex="1" parent="1">
          <mxGeometry x="605" y="250" width="140" height="60" as="geometry" />
        </mxCell>
        <mxCell id="66AOZsbWc32Ulu1TGBga-24" value="" style="edgeStyle=orthogonalEdgeStyle;rounded=0;orthogonalLoop=1;jettySize=auto;html=1;" edge="1" parent="1" source="66AOZsbWc32Ulu1TGBga-23" target="66AOZsbWc32Ulu1TGBga-21">
          <mxGeometry relative="1" as="geometry" />
        </mxCell>
        <mxCell id="66AOZsbWc32Ulu1TGBga-29" value="" style="edgeStyle=orthogonalEdgeStyle;rounded=0;orthogonalLoop=1;jettySize=auto;html=1;" edge="1" parent="1" source="66AOZsbWc32Ulu1TGBga-23" target="66AOZsbWc32Ulu1TGBga-28">
          <mxGeometry relative="1" as="geometry" />
        </mxCell>
        <mxCell id="66AOZsbWc32Ulu1TGBga-23" value="&lt;font style=&quot;font-size: 24px;&quot;&gt;&lt;b&gt;Prediction Pipeline&lt;/b&gt;&lt;/font&gt;" style="rounded=0;whiteSpace=wrap;html=1;" vertex="1" parent="1">
          <mxGeometry x="390" y="252" width="130" height="60" as="geometry" />
        </mxCell>
        <mxCell id="66AOZsbWc32Ulu1TGBga-27" value="" style="edgeStyle=orthogonalEdgeStyle;rounded=0;orthogonalLoop=1;jettySize=auto;html=1;" edge="1" parent="1" source="66AOZsbWc32Ulu1TGBga-25" target="66AOZsbWc32Ulu1TGBga-28">
          <mxGeometry relative="1" as="geometry">
            <mxPoint x="680" y="491.0000000000002" as="targetPoint" />
          </mxGeometry>
        </mxCell>
        <mxCell id="66AOZsbWc32Ulu1TGBga-25" value="&lt;font style=&quot;font-size: 24px;&quot;&gt;&lt;b&gt;AWS&lt;/b&gt;&lt;/font&gt;" style="verticalLabelPosition=bottom;sketch=0;aspect=fixed;html=1;verticalAlign=top;strokeColor=none;align=center;outlineConnect=0;shape=mxgraph.citrix.cloud;" vertex="1" parent="1">
          <mxGeometry x="320" y="430" width="95" height="62" as="geometry" />
        </mxCell>
        <mxCell id="66AOZsbWc32Ulu1TGBga-28" value="&lt;font style=&quot;font-size: 24px;&quot;&gt;&lt;b&gt;GitHub Actions&lt;/b&gt;&lt;/font&gt;" style="verticalLabelPosition=bottom;sketch=0;aspect=fixed;html=1;verticalAlign=top;strokeColor=none;align=center;outlineConnect=0;shape=mxgraph.citrix.laptop_2;" vertex="1" parent="1">
          <mxGeometry x="174" y="250" width="116" height="86.5" as="geometry" />
        </mxCell>
      </root>
    </mxGraphModel>
  </diagram>
</mxfile>
